<svg xmlns="http://www.w3.org/2000/svg" xml:space="preserve" width="1102.121" height="980.632" viewBox="0 0 291.603 259.459"><path d="M107.128 388.98c-2.962-.798-5.945-3.507-7.17-6.511l-.594-1.456-.132-59.251-.132-59.252-1.852 1.603a359 359 0 0 0-3.964 3.496c-2.373 2.13-3.465 2.738-6.058 3.378-4.717 1.164-9.945-1.479-12.247-6.193-.676-1.384-.743-1.783-.746-4.436-.004-2.753.043-3.012.844-4.63 1.074-2.17 1.88-3.005 8.677-8.983 3.056-2.688 5.616-4.95 5.688-5.027a138 138 0 0 1 2.249-1.992 929 929 0 0 0 3.043-2.673c1.828-1.62 6.765-6.014 7.673-6.829.51-.457 1.879-1.653 3.043-2.658a368 368 0 0 0 4.348-3.83c2.53-2.27 5.004-4.476 6.37-5.68 2.846-2.508 5.438-4.805 5.554-4.92a244 244 0 0 1 2.38-2.117l2.544-2.25c.644-.574 4.223-3.742 10.157-8.991 3.42-3.025 7.11-6.297 8.202-7.27a3936 3936 0 0 1 13.494-11.97c2.255-1.99 4.537-4.013 5.07-4.495a93 93 0 0 1 1.719-1.515c.944-.803 4.94-4.339 5.117-4.529.073-.078 2.097-1.861 4.498-3.963s4.497-3.944 4.659-4.092c.161-.149 1.17-1.044 2.241-1.99a640 640 0 0 0 3.38-3.005c.786-.707 1.794-1.6 2.24-1.984.445-.385 2.067-1.835 3.604-3.223a730 730 0 0 1 7.16-6.336c2.4-2.098 4.608-4.058 4.905-4.356.296-.299 1.363-1.257 2.37-2.13 1.007-.874 2.788-2.46 3.958-3.527 4.327-3.944 6.392-5.15 9.402-5.49 1.593-.18 4.04.21 5.237.834.395.206.815.375.934.376.271.002 1.872 1.191 3.091 2.296.51.462 1.177 1.057 1.484 1.323.626.543 4.267 3.778 4.712 4.188.158.145 1.178 1.038 2.267 1.984 1.09.946 2.23 1.958 2.535 2.249.306.29 1.307 1.184 2.225 1.984a161 161 0 0 1 4.107 3.674c1.088 1.01 5.985 5.371 8.204 7.306 1.001.874 2.082 1.826 2.401 2.117 1.41 1.283 2.774 2.501 9.504 8.479 3.929 3.49 9.167 8.13 11.641 10.31s5.216 4.618 6.093 5.42c.877.8 2.475 2.23 3.552 3.176 1.076.945 2.144 1.904 2.374 2.13s1.307 1.178 2.396 2.116 2.517 2.194 3.175 2.79c1.23 1.113 3.373 3.03 6.305 5.635.919.816 2.132 1.9 2.696 2.41s1.677 1.498 2.474 2.197 1.736 1.533 2.087 1.852a878 878 0 0 0 10.003 8.946c2.699 2.384 10.08 8.922 16.404 14.528l19.435 17.225c4.366 3.867 8.395 7.538 8.954 8.157 4.78 5.29 3.046 13.677-3.466 16.761-1.654.784-1.746 1.174-4.328 1.174-2.605 0-3.133-.383-4.737-1.182-1.141-.567-2.954-1.964-5.419-4.174-2.037-1.826-3.912-3.44-4.167-3.588-.44-.254-.463 2.585-.463 58.047 0 38.299-.092 58.803-.268 59.739-1.315 6.985-9.02 10.925-15.475 7.913-.582-.272-4.094-1.86-7.805-3.528-26.476-11.907-54.62-26.076-75.935-38.229-6.95-3.962-15.609-9.13-18.331-10.942-1.278-.85-2.442-1.546-2.585-1.546-.285 0-2.417 1.286-2.632 1.587-.073.102-.43.34-.794.528-.364.189-1.792 1.083-3.175 1.987-5.071 3.318-16.289 9.93-25.003 14.74-4.616 2.547-8.822 4.784-19.58 10.412-5.973 3.125-19.054 9.501-27.384 13.348l-5.424 2.508c-6.984 3.239-20.997 9.284-22.674 9.782-1.625.482-4.622.5-6.34.038m21.436-30.187c3.586-1.64 7.829-3.599 9.43-4.352s3.862-1.81 5.027-2.347c6.3-2.91 26.926-13.387 30.748-15.619 1.038-.606 1.959-1.102 2.046-1.102s.602-.28 1.144-.622c.543-.342 2.713-1.552 4.823-2.69 4.505-2.426 18.514-10.767 19.478-11.597l.666-.573-3.251-2.776c-6.4-5.466-12.27-11.318-16.719-16.667-1.028-1.237-2.024-2.344-2.212-2.46a.8.8 0 0 1-.343-.604c0-.216-.179-.461-.397-.545s-.397-.265-.397-.404c0-.226-1.248-1.945-2.02-2.782-.83-.901-5.908-9.278-7.252-11.964-6.347-12.688-6.505-26.886-.438-39.45 3.63-7.518 10.602-14.488 18.36-18.355 9.278-4.624 20.354-5.111 30.187-1.327l2.457.945 1.644-.652c9.477-3.76 19.482-3.71 28.764.142 10.803 4.483 19.144 13.56 22.873 24.892 1.384 4.207 1.632 5.727 1.883 11.553.136 3.149.072 4.406-.358 7.012-.694 4.202-1.65 7.7-3.136 11.463-3.074 7.785-6.666 13.633-12.789 20.816-3.03 3.555-12.372 13.042-17.138 17.404-1.928 1.765-3.506 3.351-3.506 3.525 0 .175.387.547.86.828l7.475 4.437c3.638 2.16 7.169 4.233 7.847 4.609.678.375 2.655 1.486 4.395 2.468 1.74.983 3.219 1.786 3.287 1.786.07 0 2.02 1.024 4.337 2.276 4.847 2.62 25.1 13.07 25.33 13.07.084 0 3.946 1.875 8.582 4.167s9.375 4.605 10.531 5.14c4.78 2.215 7.529 3.393 7.92 3.393.376 0 .41-5.294.358-56.29-.031-30.96-.104-57.734-.162-59.5l-.105-3.208-2.955-2.609c-1.625-1.434-7.598-6.721-13.274-11.748a109923 109923 0 0 0-25.4-22.489 14949 14949 0 0 1-16.007-14.179c-.51-.457-4.2-3.717-8.202-7.243a2410 2410 0 0 1-8.07-7.131 348 348 0 0 0-4.973-4.35c-.698-.6-1.657-1.449-2.131-1.885a243 243 0 0 0-2.814-2.514l-3.301-2.91c-.743-.655-2.168-1.905-3.168-2.778s-2.008-1.766-2.242-1.985a139 139 0 0 0-2.407-2.095c-1.09-.934-2.161-1.896-2.38-2.138-.6-.668-1.787-1.377-1.891-1.133-.051.12-1.343 1.284-2.87 2.589-1.529 1.304-3.022 2.611-3.318 2.905-.73.723-2.59 2.373-4.477 3.973-.858.728-1.77 1.525-2.027 1.771-.802.769-7.56 6.806-11.459 10.238l-5.41 4.762c-.928.817-2.06 1.822-2.514 2.233s-1.407 1.245-2.117 1.852a63 63 0 0 0-1.984 1.768c-.382.365-1.703 1.555-2.936 2.646a670 670 0 0 0-2.534 2.247c-.16.146-1.104.979-2.098 1.852a271 271 0 0 0-2.096 1.855c-.16.147-1.779 1.574-3.598 3.17a421 421 0 0 0-4.498 3.994c-.654.6-3.452 3.082-6.217 5.516-2.765 2.433-5.92 5.23-7.012 6.213a471 471 0 0 1-4.1 3.644c-4.352 3.812-19.095 16.86-20.241 17.913-.655.601-2.452 2.197-3.993 3.547l-2.803 2.454-.155 6.274c-.085 3.45-.17 30.305-.187 59.676l-.033 53.402.572-.182c.315-.1 3.506-1.524 7.091-3.165m96.061-56.035c5.447-4.912 15.354-14.882 18.157-18.27 4.774-5.773 7.363-10.324 9.412-16.54.958-2.91 1.12-3.745 1.23-6.333.146-3.436-.161-5.394-1.296-8.244-3.967-9.966-14.542-14.393-23.647-9.9-2.48 1.224-4.827 3.134-6.79 5.526-.891 1.086-1.708 1.974-1.815 1.974s-.707-.666-1.335-1.479c-3.624-4.697-8.448-7.374-13.872-7.696-3.93-.234-7.223.81-10.587 3.356-3.581 2.71-5.425 5.328-6.894 9.787-.686 2.082-.741 2.563-.745 6.483-.003 3.88.058 4.432.728 6.613.809 2.63 2.014 5.425 2.339 5.425.115 0 .21.135.21.3 0 .305 3.794 6.495 5.006 8.167 4.798 6.616 11.957 14.05 19.835 20.6 4.203 3.494 4.957 4.022 5.537 3.876.37-.092 2.407-1.733 4.527-3.645" style="fill:#000" transform="translate(-74.233 -129.859)"/></svg>