<svg xmlns="http://www.w3.org/2000/svg" viewBox="0 0 896 896">
    <path d="M64 320v512h768V128H704v32a32 32 0 1 1-64 0v-32H256v32a32 32 0 0 1-64 0v-32H64v128h768v64zM256 64h384V32a32 32 0 1 1 64 0v32h160a32 32 0 0 1 32 32v768a32 32 0 0 1-32 32H32a32 32 0 0 1-32-32V96a32 32 0 0 1 32-32h160V32a32 32 0 0 1 64 0zm-32 384h64a32 32 0 0 1 0 64h-64a32 32 0 0 1 0-64zm0 192h64a32 32 0 1 1 0 64h-64a32 32 0 1 1 0-64zm192-192h64a32 32 0 0 1 0 64h-64a32 32 0 0 1 0-64zm0 192h64a32 32 0 1 1 0 64h-64a32 32 0 1 1 0-64zm192-192h64a32 32 0 1 1 0 64h-64a32 32 0 1 1 0-64zm0 192h64a32 32 0 1 1 0 64h-64a32 32 0 1 1 0-64z"/>
</svg>