<?xml version="1.0" encoding="UTF-8" standalone="no"?>

<svg
   version="1.0"
   id="Layer_1"
   width="500"
   height="800"
   viewBox="0 0 40 64"
   enable-background="new 0 0 64 64"
   xml:space="preserve"
   sodipodi:docname="mobile-filled.svg"
   inkscape:version="1.2.2 (b0a8486541, 2022-12-01)"
   xmlns:inkscape="http://www.inkscape.org/namespaces/inkscape"
   xmlns:sodipodi="http://sodipodi.sourceforge.net/DTD/sodipodi-0.dtd"
   xmlns="http://www.w3.org/2000/svg"
   xmlns:svg="http://www.w3.org/2000/svg"><defs
   id="defs17" /><sodipodi:namedview
   id="namedview15"
   pagecolor="#ffffff"
   bordercolor="#666666"
   borderopacity="1.0"
   inkscape:showpageshadow="2"
   inkscape:pageopacity="0.0"
   inkscape:pagecheckerboard="0"
   inkscape:deskcolor="#d1d1d1"
   showgrid="false"
   inkscape:zoom="0.295"
   inkscape:cx="250.84746"
   inkscape:cy="400"
   inkscape:window-width="1280"
   inkscape:window-height="769"
   inkscape:window-x="0"
   inkscape:window-y="0"
   inkscape:window-maximized="1"
   inkscape:current-layer="Layer_1" />
<g
   id="g12"
   transform="translate(-12)">
	<rect
   x="12"
   y="10"
   width="40"
   height="40"
   id="rect2" />
  <path
   d="M 48,0 H 16 C 13.789,0 12,1.789 12,4 V 8 H 52 V 4 C 52,1.789 50.211,0 48,0 Z M 33,5.998 h -6 c -0.553,0 -1,-0.447 -1,-1 0,-0.553 0.447,-1 1,-1 h 6 c 0.553,0 1,0.447 1,1 0,0.553 -0.447,1 -1,1 z m 4,0 c -0.553,0 -1,-0.447 -1,-1 0,-0.553 0.447,-1 1,-1 0.553,0 1,0.447 1,1 0,0.553 -0.447,1 -1,1 z"
   id="path4" />
  <g
   id="g10">
		<circle
   cx="32"
   cy="56.998001"
   r="1"
   id="circle6" />
    <path
   d="m 12,52 v 8 c 0,2.211 1.789,4 4,4 h 32 c 2.211,0 4,-1.789 4,-4 v -8 z m 20,7.998 c -1.658,0 -3,-1.342 -3,-3 0,-1.658 1.342,-3 3,-3 1.658,0 3,1.342 3,3 0,1.658 -1.342,3 -3,3 z"
   id="path8" />
	</g>
</g>
</svg>
