<svg xmlns="http://www.w3.org/2000/svg" width="799.997" height="800.082" viewBox="0 0 20 20.002"><path fill-rule="evenodd" d="M19.821 7.999h-9.61c0 1 0 2.998-.006 3.998h5.569c-.214 1-.97 2.398-2.04 3.103 0 0-.001.01-.003.01-1.422.938-3.297 1.151-4.69.872-2.183-.434-3.91-2.017-4.612-4.028.004 0 .007-.031.01-.033C4 10.673 4 9.003 4.44 8.004c.565-1.837 2.344-3.513 4.53-3.972 1.759-.373 3.743.031 5.202 1.396.194-.19 2.685-2.622 2.872-2.82C12.058-1.907 4.077-.318 1.09 5.51h-.001l-.005.011a9.77 9.77 0 0 0 .01 8.964c-.004 0-.007.01-.01.01a10.18 10.18 0 0 0 6.48 5.165c3.01.79 6.843.25 9.41-2.071h.003c2.175-1.96 3.529-5.297 2.844-9.587"/></svg>