<svg xmlns="http://www.w3.org/2000/svg" width="17" height="23.999"><path d="M0 2.161v20.336c0 .952.559 1.298.841 1.411.287.117 1.053.216 1.52-.333 5.954-7.004 6.056-7.121 6.056-7.121.143-.159.157-.145.314-.145h3.852c1.621 0 1.875-1.181 2.047-1.861l2.245-11.392C17.267 1.069 16.773 0 14.925 0H2.305C.573 0 0 1.327 0 2.161m2.668 1.257c0-.361.314-.778.767-.778h10.117c.378 0 .72.361.624.82l-.003-.001-.526 2.798c-.055.305-.439.619-.78.619H7.95c-.555 0-.952.389-.952.952v.609c0 .563.397.966.952.966h4.176c.383 0 .767.431.684.853a377 377 0 0 0-.526 2.756c-.041.23-.314.633-.781.633H8.108c-.624 0-.794.084-1.224.591 0 0-.411.534-4.134 5.078-.041.042-.083.028-.083-.014V3.418Z"/></svg>