<svg xmlns="http://www.w3.org/2000/svg" width="749.8" height="749.8" viewBox="0 0 29.992 29.992"><path d="M24.912 6.917a17.2 17.2 0 0 1-7.035 5.009l-.118.039c.3.612.587 1.231.85 1.857.1.225.187.45.275.662.927-.102 2.003-.16 3.092-.16 2.063 0 4.077.208 6.023.605l-.193-.033a12.63 12.63 0 0 0-2.904-7.994l.017.021zM11.997 2.565a67 67 0 0 1 4.598 7.151l.178.347c2.712-.908 4.989-2.511 6.694-4.6l.021-.026a12.72 12.72 0 0 0-8.494-3.232 12.8 12.8 0 0 0-3.084.375l.088-.018zm-9.541 9.826a47.7 47.7 0 0 0 12.176-1.636l-.333.076a81 81 0 0 0-4.912-7.644l.163.236c-3.596 1.721-6.227 4.966-7.077 8.875l-.015.085zm3.024 11.19c2.42-3.882 6.01-6.839 10.271-8.408l.141-.045q.253-.083.506-.15a46 46 0 0 0-1.04-2.174c-3.888 1.154-8.355 1.819-12.977 1.819h-.196.01l-.005.39v.009c0 3.297 1.25 6.302 3.301 8.568l-.01-.011zm14.521 3.224c-.682-3.699-1.63-6.957-2.863-10.07l.126.361-.082.025c-4.314 1.346-7.826 4.192-10.002 7.915l-.045.083a12.7 12.7 0 0 0 7.863 2.707c1.805 0 3.522-.374 5.078-1.049l-.083.032zm7.641-9.757c-1.571-.474-3.376-.747-5.245-.747q-1.447.002-2.836.213l.104-.013c.98 2.564 1.842 5.629 2.436 8.789l.054.344c2.874-1.96 4.893-4.993 5.482-8.51l.01-.075zM14.996 29.992C6.714 29.992 0 23.278 0 14.996S6.714 0 14.996 0s14.996 6.714 14.996 14.996c-.011 8.277-6.718 14.984-14.995 14.996Z"/></svg>