<svg xmlns="http://www.w3.org/2000/svg" width="27.801" height="31.998"><path d="M14.603.027C16.348 0 18.083.016 19.816 0c.105 2.041.84 4.12 2.333 5.563 1.491 1.479 3.6 2.156 5.652 2.385v5.369c-1.923-.063-3.855-.463-5.6-1.291-.76-.344-1.468-.787-2.16-1.24-.01 3.896.015 7.787-.026 11.667-.104 1.864-.719 3.719-1.803 5.255-1.744 2.557-4.77 4.224-7.88 4.276-1.907.109-3.812-.411-5.437-1.369C2.202 29.027.307 26.12.031 23a22 22 0 0 1-.016-1.984c.24-2.537 1.495-4.964 3.443-6.615 2.208-1.923 5.301-2.839 8.197-2.297.027 1.975-.052 3.948-.052 5.923-1.323-.428-2.869-.308-4.025.495a4.62 4.62 0 0 0-1.819 2.333c-.276.676-.197 1.427-.18 2.145.316 2.188 2.42 4.027 4.666 3.828 1.49-.016 2.916-.88 3.692-2.145.251-.443.532-.896.547-1.417.131-2.385.08-4.76.095-7.145.011-5.375-.016-10.735.025-16.093z"/></svg>